<svg width="52" height="51" viewBox="0 0 52 51" fill="none" xmlns="http://www.w3.org/2000/svg">
<g opacity="0.25">
<path opacity="0.25" d="M26 50C39.8071 50 51 39.031 51 25.5C51 11.969 39.8071 1 26 1C12.1929 1 1 11.969 1 25.5C1 39.031 12.1929 50 26 50Z" stroke="#33A0FF" stroke-width="2"/>
</g>
<path fill-rule="evenodd" clip-rule="evenodd" d="M28.9359 19.538C29.5797 19.5387 30.2097 19.7252 30.7501 20.0751C31.2905 20.4251 31.7184 20.9236 31.9824 21.5109C32.2464 22.0981 32.3353 22.7491 32.2383 23.3856C32.1414 24.0221 31.8628 24.617 31.4359 25.099C30.8229 25.79 25.5959 30.6831 25.5959 30.6831C25.5959 30.6831 20.3579 25.79 19.7449 25.088C19.2037 24.4806 18.906 23.6946 18.9089 22.8811C18.9241 22.0043 19.283 21.1686 19.9084 20.5539C20.5338 19.9392 21.3756 19.5949 22.2524 19.5949C23.1293 19.5949 23.971 19.9392 24.5964 20.5539C25.2218 21.1686 25.5808 22.0043 25.5959 22.8811C25.5959 22.4419 25.6824 22.007 25.8505 21.6013C26.0185 21.1956 26.2648 20.827 26.5754 20.5165C26.8859 20.206 27.2545 19.9596 27.6602 19.7916C28.0659 19.6235 28.5008 19.5371 28.9399 19.5371L28.9359 19.538ZM28.9399 17.3081C27.7336 17.3059 26.5596 17.6974 25.5959 18.423C24.492 17.6037 23.1241 17.2212 21.7552 17.3493C20.3864 17.4774 19.1132 18.1069 18.1804 19.1169C17.2476 20.1268 16.7211 21.4459 16.702 22.8206C16.6828 24.1953 17.1725 25.5285 18.0769 26.564C18.7029 27.282 22.8259 31.1421 24.0769 32.3081C24.4898 32.6942 25.0341 32.909 25.5994 32.909C26.1648 32.909 26.709 32.6942 27.1219 32.3081C28.3659 31.1431 32.4719 27.2931 33.1059 26.5761C33.8172 25.7725 34.2814 24.7807 34.4427 23.7197C34.604 22.6588 34.4556 21.5738 34.0152 20.5952C33.5749 19.6165 32.8613 18.7858 31.9603 18.2029C31.0592 17.62 30.0091 17.3096 28.9359 17.309L28.9399 17.3081Z" fill="#33A0FF"/>
</svg>
