<svg width="51" height="51" viewBox="0 0 51 51" fill="none" xmlns="http://www.w3.org/2000/svg">
<g opacity="0.25">
<path opacity="0.25" d="M25.5 50C39.031 50 50 39.031 50 25.5C50 11.969 39.031 1 25.5 1C11.969 1 1 11.969 1 25.5C1 39.031 11.969 50 25.5 50Z" stroke="#33A0FF" stroke-width="2"/>
</g>
<path fill-rule="evenodd" clip-rule="evenodd" d="M31.554 28.455C32.0681 28.4543 32.5659 28.2753 32.9628 27.9485C33.3596 27.6217 33.6307 27.1674 33.73 26.663L34.845 21.09C34.9096 20.767 34.9018 20.4337 34.8222 20.1141C34.7425 19.7945 34.5931 19.4966 34.3845 19.2416C34.176 18.9867 33.9135 18.7811 33.616 18.6398C33.3185 18.4984 32.9934 18.4247 32.664 18.424H21.564V17.309C21.5638 17.0142 21.4467 16.7314 21.2385 16.5226C21.0303 16.3139 20.7479 16.1961 20.453 16.195H18.238C17.9482 16.2037 17.6732 16.3249 17.4713 16.533C17.2694 16.741 17.1564 17.0196 17.1564 17.3095C17.1564 17.5994 17.2694 17.878 17.4713 18.0861C17.6732 18.2941 17.9482 18.4153 18.238 18.424H19.353V29.569C18.9117 29.5671 18.4798 29.6961 18.1119 29.9398C17.7441 30.1835 17.4568 30.5309 17.2866 30.938C17.1163 31.3452 17.0708 31.7936 17.1556 32.2267C17.2405 32.6597 17.452 33.0579 17.7633 33.3706C18.0747 33.6833 18.4718 33.8966 18.9045 33.9834C19.3371 34.0702 19.7858 34.0267 20.1937 33.8583C20.6016 33.6899 20.9503 33.4042 21.1957 33.0374C21.441 32.6706 21.572 32.2393 21.572 31.798H29.338C29.3398 32.2367 29.4715 32.665 29.7165 33.0289C29.9615 33.3928 30.3089 33.6759 30.7147 33.8426C31.1205 34.0092 31.5666 34.0519 31.9966 33.9653C32.4266 33.8786 32.8214 33.6664 33.1309 33.3556C33.4405 33.0448 33.6511 32.6492 33.736 32.2188C33.8209 31.7884 33.7764 31.3425 33.6081 30.9374C33.4399 30.5323 33.1553 30.186 32.7905 29.9425C32.4256 29.699 31.9967 29.569 31.558 29.569H21.571V28.455H31.554ZM32.669 20.655L31.554 26.228H21.567V20.655H32.667H32.669Z" fill="#33A0FF"/>
</svg>
